<svg width="15" height="15" viewBox="0 0 15 15" fill="none" xmlns="http://www.w3.org/2000/svg">
<path d="M0.528198 6.0669C0.528198 6.90319 0.68109 7.68752 0.986874 8.41989C1.29266 9.15231 1.71681 9.79728 2.25933 10.3548C2.80185 10.9123 3.42945 11.3482 4.14212 11.6625C4.85479 11.9767 5.61801 12.1338 6.43179 12.1338C7.07295 12.1338 7.68451 12.0324 8.26646 11.8297C8.84846 11.627 9.38112 11.3482 9.86444 10.9934L13.5043 14.7415C13.5931 14.8277 13.6904 14.8923 13.7965 14.9354C13.9025 14.9785 14.0147 15 14.1331 15C14.3008 15 14.4487 14.9607 14.577 14.8821C14.7052 14.8036 14.8051 14.6959 14.8766 14.5591C14.9481 14.4222 14.9838 14.2701 14.9838 14.1028C14.9838 13.9812 14.9629 13.8672 14.921 13.7608C14.879 13.6543 14.8186 13.5606 14.7398 13.4795L11.1221 9.73899C11.5019 9.23213 11.799 8.66699 12.0135 8.04356C12.2281 7.42016 12.3354 6.76127 12.3354 6.0669C12.3354 5.23061 12.1825 4.44627 11.8767 3.71389C11.5709 2.9815 11.1468 2.33654 10.6043 1.77902C10.0618 1.22149 9.43415 0.785606 8.72145 0.471363C8.00879 0.157121 7.24557 0 6.43179 0C5.61801 0 4.85479 0.157121 4.14212 0.471363C3.42945 0.785606 2.80185 1.22149 2.25933 1.77902C1.71681 2.33654 1.29266 2.9815 0.986874 3.71389C0.68109 4.44627 0.528198 5.23061 0.528198 6.0669ZM1.79325 6.0669C1.79325 5.408 1.91285 4.79092 2.15205 4.21566C2.39126 3.64039 2.72417 3.13355 3.15078 2.69513C3.5774 2.25671 4.0706 1.91459 4.63038 1.66877C5.19017 1.42296 5.79064 1.30005 6.43179 1.30005C7.07295 1.30005 7.67342 1.42296 8.2332 1.66877C8.79299 1.91459 9.28494 2.25671 9.70907 2.69513C10.1332 3.13355 10.4662 3.64039 10.7078 4.21566C10.9495 4.79092 11.0703 5.408 11.0703 6.0669C11.0703 6.72579 10.9495 7.34287 10.7078 7.91814C10.4662 8.4934 10.1332 8.99897 9.70907 9.43483C9.28494 9.87074 8.79299 10.2129 8.2332 10.4612C7.67342 10.7096 7.07295 10.8337 6.43179 10.8337C5.79064 10.8337 5.19017 10.7096 4.63038 10.4612C4.0706 10.2129 3.5774 9.87074 3.15078 9.43483C2.72417 8.99897 2.39126 8.4934 2.15205 7.91814C1.91285 7.34287 1.79325 6.72579 1.79325 6.0669Z" fill="#A2A2A2"/>
</svg>
